<?xml version="1.0" encoding="utf-8"?>
<!-- Generator: Adobe Illustrator 28.2.0, SVG Export Plug-In . SVG Version: 6.00 Build 0)  -->
<svg version="1.1"
	 id="Layer_1" xmlns:cc="http://creativecommons.org/ns#" xmlns:svg="http://www.w3.org/2000/svg" xmlns:dc="http://purl.org/dc/elements/1.1/" xmlns:sodipodi="http://sodipodi.sourceforge.net/DTD/sodipodi-0.dtd" xmlns:inkscape="http://www.inkscape.org/namespaces/inkscape" xmlns:rdf="http://www.w3.org/1999/02/22-rdf-syntax-ns#" sodipodi:docname="Visa_2006.svg"
	 xmlns="http://www.w3.org/2000/svg" xmlns:xlink="http://www.w3.org/1999/xlink" x="0px" y="0px" viewBox="0 0 441 323.7"
	 style="enable-background:new 0 0 441 323.7;" xml:space="preserve">
<style type="text/css">
	.st0{fill:#231F20;}
	.st1{fill:#F79410;}
	.st2{fill:#FF5F00;}
	.st3{fill:#EB001B;}
	.st4{fill:#F79E1B;}
</style>
<sodipodi:namedview  bordercolor="#666666" borderopacity="1" gridtolerance="10" guidetolerance="10" id="namedview19" inkscape:current-layer="Layer_1" inkscape:cx="34.690897" inkscape:cy="131.15483" inkscape:pageopacity="0" inkscape:pageshadow="2" inkscape:window-height="705" inkscape:window-maximized="1" inkscape:window-width="1366" inkscape:window-x="-8" inkscape:window-y="-8" inkscape:zoom="0.35355339" objecttolerance="10" pagecolor="#ffffff" showgrid="false">
	</sodipodi:namedview>
<g>
	<path class="st0" d="M409.7,309.7v0.8h0.7c0.1,0,0.3,0,0.4-0.1c0.1-0.1,0.2-0.2,0.1-0.3c0-0.1-0.1-0.2-0.1-0.3
		c-0.1-0.1-0.3-0.1-0.4-0.1L409.7,309.7L409.7,309.7z M410.4,309.1c0.3,0,0.6,0.1,0.9,0.3c0.2,0.2,0.3,0.4,0.3,0.7
		c0,0.2-0.1,0.4-0.2,0.6c-0.2,0.2-0.4,0.3-0.7,0.3l1,1.1h-0.8L410,311h-0.3v1.1H409v-3L410.4,309.1L410.4,309.1z M410.2,313.1
		c0.3,0,0.7-0.1,1-0.2c0.3-0.1,0.6-0.3,0.8-0.5c0.2-0.2,0.4-0.5,0.5-0.8c0.3-0.6,0.3-1.3,0-1.9c-0.1-0.3-0.3-0.6-0.5-0.8
		c-0.2-0.2-0.5-0.4-0.8-0.5c-0.3-0.1-0.6-0.2-1-0.2c-0.3,0-0.7,0.1-1,0.2c-0.3,0.1-0.6,0.3-0.8,0.5c-0.7,0.7-0.9,1.8-0.5,2.7
		c0.1,0.3,0.3,0.6,0.5,0.8c0.2,0.2,0.5,0.4,0.8,0.5C409.5,313.1,409.9,313.1,410.2,313.1 M410.2,307.5c0.9,0,1.7,0.3,2.3,0.9
		c0.3,0.3,0.5,0.6,0.7,1c0.3,0.8,0.3,1.7,0,2.5c-0.2,0.4-0.4,0.7-0.7,1c-0.3,0.3-0.6,0.5-1,0.7c-0.4,0.2-0.8,0.3-1.3,0.3
		c-0.4,0-0.9-0.1-1.3-0.3c-0.4-0.2-0.7-0.4-1-0.7c-0.3-0.3-0.5-0.7-0.7-1c-0.3-0.8-0.3-1.7,0-2.5c0.2-0.4,0.4-0.7,0.7-1
		c0.3-0.3,0.6-0.5,1-0.7C409.3,307.5,409.8,307.4,410.2,307.5 M111.1,296c0-5.6,3.7-10.3,9.7-10.3c5.8,0,9.7,4.4,9.7,10.3
		c0,5.8-3.9,10.3-9.7,10.3C114.8,306.3,111.1,301.7,111.1,296 M137,296v-16h-7v3.9c-2.2-2.9-5.6-4.7-10.1-4.7c-9,0-16,7-16,16.8
		s7,16.8,16,16.8c4.6,0,7.9-1.8,10.1-4.7v3.9h7L137,296L137,296z M372.6,296c0-5.6,3.7-10.3,9.7-10.3c5.8,0,9.7,4.4,9.7,10.3
		c0,5.8-3.9,10.3-9.7,10.3C376.3,306.3,372.6,301.7,372.6,296 M398.6,296v-28.9h-7v16.8c-2.2-2.9-5.6-4.7-10.1-4.7
		c-9,0-16,7-16,16.8s7,16.8,16,16.8c4.6,0,7.9-1.8,10.1-4.7v3.9h7V296z M223.6,285.4c4.5,0,7.4,2.8,8.1,7.8H215
		C215.8,288.6,218.6,285.4,223.6,285.4 M223.7,279.2c-9.4,0-16,6.8-16,16.8c0,10.2,6.8,16.8,16.4,16.8c4.8,0,9.3-1.2,13.1-4.5
		l-3.4-5.2c-2.7,2.1-6.1,3.4-9.3,3.4c-4.5,0-8.6-2.1-9.6-7.9h23.8c0.1-0.9,0.1-1.7,0.1-2.7C238.9,286,232.7,279.2,223.7,279.2
		 M307.9,296c0-5.6,3.7-10.3,9.7-10.3c5.8,0,9.7,4.4,9.7,10.3s-3.9,10.3-9.7,10.3C311.6,306.3,307.9,301.7,307.9,296 M333.8,296v-16
		h-7v3.9c-2.2-2.9-5.6-4.7-10.1-4.7c-9,0-16,7-16,16.8s7,16.8,16,16.8c4.6,0,7.9-1.8,10.1-4.7v3.9h7L333.8,296L333.8,296z
		 M268.5,296c0,9.7,6.8,16.8,17.1,16.8c4.8,0,8-1.1,11.5-3.8l-3.3-5.6c-2.6,1.9-5.4,2.9-8.4,2.9c-5.6-0.1-9.7-4.1-9.7-10.3
		s4.1-10.2,9.7-10.3c3,0,5.8,1,8.4,2.9l3.3-5.6c-3.5-2.7-6.7-3.8-11.5-3.8C275.3,279.2,268.5,286.3,268.5,296 M358.4,279.2
		c-4,0-6.6,1.9-8.5,4.7V280H343v32.1h7v-18c0-5.3,2.3-8.3,6.8-8.3c1.5,0,3,0.3,4.4,0.8l2.1-6.6C361.8,279.5,359.8,279.2,358.4,279.2
		 M171.5,282.5c-3.4-2.2-8-3.4-13.1-3.4c-8.1,0-13.4,3.9-13.4,10.3c0,5.2,3.9,8.5,11.1,9.5l3.3,0.5c3.8,0.5,5.6,1.5,5.6,3.4
		c0,2.5-2.5,3.9-7.3,3.9c-4.8,0-8.3-1.5-10.7-3.4l-3.3,5.4c3.8,2.8,8.7,4.2,13.9,4.2c9.3,0,14.6-4.4,14.6-10.5
		c0-5.6-4.2-8.6-11.2-9.6l-3.3-0.5c-3-0.4-5.4-1-5.4-3.1c0-2.3,2.3-3.8,6.1-3.8c4.1,0,8.1,1.5,10,2.7L171.5,282.5L171.5,282.5z
		 M261.5,279.2c-4,0-6.6,1.9-8.4,4.7V280h-6.9v32.1h7v-18c0-5.3,2.3-8.3,6.8-8.3c1.5,0,3,0.3,4.4,0.8l2.1-6.6
		C264.9,279.5,262.9,279.2,261.5,279.2 M202,280h-11.4v-9.7h-7v9.7H177v6.4h6.5V301c0,7.4,2.9,11.9,11.1,11.9c3,0,6.5-0.9,8.7-2.5
		l-2-6c-2.1,1.2-4.4,1.8-6.2,1.8c-3.5,0-4.6-2.1-4.6-5.4v-14.5H202V280z M97.7,312.1v-20.1c0-7.6-4.8-12.7-12.6-12.7
		c-4.1-0.1-8.3,1.2-11.3,5.7c-2.2-3.6-5.7-5.7-10.6-5.7c-3.4,0-6.8,1-9.4,4.8v-4h-7v32.1h7v-17.8c0-5.6,3.1-8.5,7.9-8.5
		c4.6,0,7,3,7,8.5v17.8h7v-17.8c0-5.6,3.2-8.5,7.8-8.5c4.8,0,7,3,7,8.5v17.8L97.7,312.1z"/>
	<path class="st1" d="M413.6,205.4v-4.7h-1.2l-1.4,3.2l-1.4-3.2h-1.2v4.7h0.9v-3.5l1.3,3h0.9l1.3-3.1v3.5H413.6L413.6,205.4z
		 M405.9,205.4v-3.9h1.6v-0.8h-4v0.8h1.6v3.9L405.9,205.4L405.9,205.4z"/>
	<path class="st2" d="M274.9,225.5H169.2V35.6h105.7L274.9,225.5z"/>
	<path class="st3" d="M175.9,130.6c0-38.5,18-72.8,46.1-94.9c-21.3-16.8-47.6-25.9-74.6-25.8C80.7,9.8,26.6,63.9,26.6,130.6
		s54.1,120.8,120.7,120.8c27.1,0,53.4-9.1,74.6-25.8C193.9,203.4,175.9,169.1,175.9,130.6"/>
	<path class="st4" d="M417.4,130.6c0,66.7-54.1,120.8-120.7,120.8c-27.1,0-53.4-9.1-74.6-25.8c28.1-22.1,46.1-56.4,46.1-94.9
		s-18-72.8-46.1-94.9c21.3-16.8,47.6-25.9,74.6-25.8C363.3,9.8,417.4,63.9,417.4,130.6"/>
</g>
</svg>
