<?xml version="1.0" encoding="utf-8"?>
<!-- Generator: Adobe Illustrator 28.2.0, SVG Export Plug-In . SVG Version: 6.00 Build 0)  -->
<svg version="1.1" id="Layer_2_00000054968991686088992230000006779113388109019008_"
	 xmlns="http://www.w3.org/2000/svg" xmlns:xlink="http://www.w3.org/1999/xlink" x="0px" y="0px" viewBox="0 0 93.6 92.7"
	 style="enable-background:new 0 0 93.6 92.7;" xml:space="preserve">
<g>
	<g>
		<path d="M25.2,49.9h-3.5c-3.9,0-7.1,3.2-7.1,7.1v3.5c0,3.9,3.2,7.1,7.1,7.1h3.5c3.9,0,7.1-3.2,7.1-7.1V57
			C32.3,53.1,29.1,49.9,25.2,49.9z M28.7,60.5c0,2-1.6,3.5-3.5,3.5h-3.5c-2,0-3.5-1.6-3.5-3.5V57c0-2,1.6-3.5,3.5-3.5h3.5
			c2,0,3.5,1.6,3.5,3.5V60.5z"/>
		<rect x="39.4" y="53.8" width="39.9" height="3.5"/>
		<rect x="39.4" y="60.9" width="31" height="3.5"/>
		<path d="M12.2,16.2c-5,0-8.9,3.9-8.9,8.9v42.5c0,5,3.9,8.9,8.9,8.9h69.1c5,0,8.9-3.9,8.9-8.9V25.1c0-5-3.9-8.9-8.9-8.9H12.2z
			 M86.7,67.6c0,3-2.3,5.3-5.3,5.3H12.2c-3,0-5.3-2.3-5.3-5.3V41h79.8V67.6z M86.7,30.4H6.9v-5.3c0-3,2.3-5.3,5.3-5.3h69.1
			c3,0,5.3,2.3,5.3,5.3V30.4z"/>
	</g>
</g>
</svg>
